<?xml version="1.0" encoding="UTF-8"?>
<svg width="2037px" height="578px" viewBox="0 0 2037 578" version="1.1" xmlns="http://www.w3.org/2000/svg" xmlns:xlink="http://www.w3.org/1999/xlink">
    <!-- Generator: Sketch 46.2 (44496) - http://www.bohemiancoding.com/sketch -->
    <title>WHITE</title>
    <desc>Created with Sketch.</desc>
    <defs></defs>
    <g id="Logos" stroke="none" stroke-width="1" fill="none" fill-rule="evenodd">
        <g id="WHITE" transform="translate(-231.000000, -311.000000)">
            <rect id="Rectangle-114" fill-opacity="0" fill="#3D68A3" x="0" y="0" width="2500" height="1199.22261"></rect>
            <g id="Group-27" transform="translate(246.000000, 311.000000)" fill="#FFFFFF">
                <g id="Group-26" transform="translate(0.000000, 16.000000)" stroke="#FFFFFF" stroke-width="30" stroke-linecap="round" stroke-linejoin="round">
                    <path d="M18.479048,30.7621204 L16.2615622,30.7621204 L16.2615622,534.985045 L0,534.985045 L0,10 L22.9140195,10 L399.147437,513.48142 L401.364923,513.48142 L401.364923,10 L417.626485,10 L417.626485,534.985045 L393.973303,534.985045 L18.479048,30.7621204 Z M1337.14391,534.985045 L1312.01241,534.985045 L1115.39534,10 L1133.13522,10 L1323.839,520.154959 L1325.31732,520.154959 L1518.97775,10 L1536.71763,10 L1337.14391,534.985045 L1337.14391,534.985045 L1337.14391,534.985045 Z M1926.99513,384.459672 L1623.19958,384.459672 L1558.89249,534.985045 L1541.1526,534.985045 L1768.07531,10 L1788.77185,10 L2006.82461,534.985045 L1989.08473,534.985045 L1926.99513,384.459672 Z M1635,371.37109 L1912.97282,371.37109 L1776.09227,39 L1635,371.37109 Z" id="NOVA"></path>
                </g>
                <g id="Group" transform="translate(548.000000, 0.000000)" fill-rule="nonzero">
                    <path d="M506.336309,179.014575 C511.070859,172.89656 512.519335,164.261499 507.707781,156.100921 L503.486448,148.94138 C498.665066,140.764132 490.336607,137.772739 482.616405,138.864851 L499.911051,148.502161 L489.663312,166.53124 L471.618843,176.961559 L467.397511,169.802018 L485.441979,159.371699 L506.336309,159.371699 L506.336309,179.014575 Z M482.616405,438.418519 C490.336607,439.510631 498.665066,436.519239 503.486448,428.34199 L507.707781,421.182449 C512.519335,413.021871 511.070859,404.38681 506.336309,398.268795 L506.336309,417.911671 L485.441979,417.911671 L467.397511,407.481352 L471.618843,400.321812 L489.663312,410.752131 L499.911051,428.781209 L482.616388,438.418517 Z M238.680374,548.665565 C241.76679,555.468624 248.42518,560.710329 257.681423,560.710329 L265.771127,560.710329 C275.027371,560.710329 281.685761,555.468624 284.772177,548.665565 L267.929163,558.051195 L257.681423,540.022116 L257.681423,519.333904 L265.771127,519.333904 L265.771127,540.022116 L255.523388,558.051195 L238.680374,548.665565 Z M17.1162423,398.268795 C12.3816916,404.38681 10.9332163,413.021871 15.7447701,421.182449 L19.9661025,428.34199 C24.787485,436.519239 33.1159441,439.510631 40.8361455,438.418519 L23.5414997,428.781209 L33.7892389,410.752131 L51.8337078,400.321812 L56.0550402,407.481352 L38.0105713,417.911671 L17.1162423,417.911671 L17.1162423,398.268795 Z M40.8361455,138.864851 C33.1159441,137.772739 24.787485,140.764132 19.9661025,148.94138 L15.7447701,156.100921 C10.9332163,164.261499 12.3816916,172.89656 17.1162423,179.014575 L17.1162423,159.371699 L38.0105713,159.371699 L56.0550402,169.802018 L51.8337078,176.961559 L33.7892389,166.53124 L23.5414997,148.502161 L40.8361627,138.864854 Z M284.772177,28.6178059 C281.685761,21.8147468 275.027371,16.5730414 265.771127,16.5730414 L257.681423,16.5730414 C248.42518,16.5730414 241.76679,21.8147468 238.680374,28.6178059 L255.523388,19.2321756 L265.771127,37.2612541 L265.771127,57.9494668 L257.681423,57.9494668 L257.681423,37.2612541 L267.929163,19.2321756 L284.772177,28.6178059 Z M247.433684,4.91309445 L15.4517957,134.18308 L11.2304633,136.535383 C4.65359763,140.200287 0.583873466,147.092012 0.583873466,154.564461 L0.583873466,159.371699 L0.583873466,417.911671 L0.583873466,422.718909 C0.583873466,430.191358 4.65359763,437.083084 11.2304633,440.747988 L15.4517957,443.10029 L247.433684,572.370276 L251.478536,574.624236 C257.841147,578.169749 265.611404,578.169749 271.974015,574.624236 L276.018867,572.370276 L508.000755,443.10029 L512.222088,440.747988 C518.798953,437.083084 522.868677,430.191358 522.868677,422.718909 L522.868677,417.911671 L522.868677,159.371699 L522.868677,154.564461 C522.868677,147.092012 518.798953,140.200287 512.222088,136.535383 L508.000755,134.18308 L276.018867,4.91309445 L271.974015,2.65913417 C265.611404,-0.886378058 257.841147,-0.886378058 251.478536,2.65913417 L247.433684,4.91309445 Z M261.726275,20.6882127 L251.478536,38.7172912 L255.523388,40.9712515 L487.505277,170.241237 L491.726609,172.59354 L501.974348,154.564461 L481.080019,154.564461 L481.080019,159.371699 L481.080019,417.911671 L481.080019,422.718909 L501.974348,422.718909 L491.726609,404.689831 L487.505277,407.042133 L255.523388,536.312119 L251.478536,538.566079 L261.726275,556.595158 L271.974015,538.566079 L267.929163,536.312119 L35.9472741,407.042133 L31.7259417,404.689831 L21.4782025,422.718909 L42.3725315,422.718909 L42.3725315,417.911671 L42.3725315,159.371699 L42.3725315,154.564461 L21.4782025,154.564461 L31.7259417,172.59354 L35.9472741,170.241237 L267.929163,40.9712515 L271.974015,38.7172912 L261.726275,20.6882127 Z" id="Polygon-1"></path>
                    <path d="M259.200685,558.258899 L263.9407,558.262579 C267.034872,558.264981 269.898412,556.643243 271.464687,554.001444 L498.60721,170.885505 C500.595001,167.532745 500.072818,163.278033 497.331867,160.494095 L493.609167,156.713012 C490.853195,153.913817 486.540815,153.298285 483.098385,155.212744 L24.9010028,410.032816 C19.9057347,412.810864 18.9300443,419.522976 22.9313429,423.582787 L26.6555097,427.361414 C30.6569476,431.421367 37.4589894,430.620305 40.3867132,425.744321 L269.482482,44.1962386 L254.49736,44.1962695 L483.597513,425.748037 C486.526693,430.6264 493.333266,431.425309 497.333456,427.360267 L501.055423,423.57796 C505.043621,419.525105 504.078965,412.832826 499.104885,410.04615 L36.17041,150.691937 C32.7274113,148.763033 28.4040377,149.371559 25.6405043,152.174048 L21.9156081,155.951452 C19.1654396,158.740388 18.6450168,163.008208 20.6457733,166.364958 L251.700633,554.015033 C253.26695,556.642907 256.118615,558.256507 259.200685,558.258899 L259.200685,558.258899 Z M259.214354,541.000289 L259.20752,549.629594 L266.714407,545.244155 L35.659547,157.59408 L28.1526602,161.979519 L34.3897123,168.007587 L38.1146085,164.230183 L31.8775564,158.202116 L27.5847029,165.712294 L490.519177,425.066506 L494.812031,417.556328 L488.568639,411.534696 L484.846673,415.317003 L491.090064,421.338635 L498.582616,416.929234 L269.482463,35.3774671 C266.104036,29.7509111 257.875745,29.750928 254.497341,35.3774979 L25.4015728,416.92558 L32.894143,421.33495 L39.1327764,415.308487 L35.4086096,411.52986 L29.1699762,417.556324 L33.4389497,425.079832 L491.636332,170.25976 L487.367358,162.736252 L481.125549,168.759491 L484.848248,172.540575 L491.090057,166.517335 L483.572905,162.149165 L256.430382,545.265104 L263.947535,549.633274 L263.954369,541.003968 L259.214354,541.000289 L259.214354,541.000289 Z M24.9008317,170.292808 L482.752098,424.876581 C486.683452,427.062573 491.649889,425.919369 494.20386,422.240549 L497.579579,417.378056 C499.5067,414.60217 499.626228,410.969904 497.885693,408.075725 L271.438457,31.5370751 C269.865486,28.9215231 267.016914,27.3199268 263.942158,27.322315 L259.203605,27.3259954 C256.140205,27.3283747 253.302941,28.9226559 251.730295,31.5253074 L20.672512,413.914577 C18.6418699,417.27519 19.1515868,421.568198 21.9140268,424.371034 L25.6381936,428.149661 C28.416794,430.968894 32.7710708,431.56758 36.2205256,429.604667 L492.795535,169.790469 L488.451837,162.308999 L482.361689,168.482532 L484.306084,170.362527 L490.396232,164.188994 L482.916881,159.757683 L251.729636,542.206669 C248.254283,547.955884 252.434432,555.262033 259.202153,555.267286 L263.942168,555.270966 C270.691943,555.276205 274.886145,548.0113 271.455889,542.256221 L40.4010299,154.606147 C37.4837547,149.711716 30.6670732,148.89701 26.6570909,152.963518 L22.9321947,156.740922 C18.9289905,160.800556 19.9043082,167.514539 24.9008317,170.292808 L24.9008317,170.292808 Z M29.1692468,162.768989 L35.4062989,168.797057 L39.1311951,165.019653 L32.894143,158.991586 L25.3872561,163.377024 L256.442116,551.027099 L263.949003,546.64166 L263.955837,538.012355 L259.215822,538.008675 L259.208987,546.637981 L266.688339,551.069292 L497.875584,168.620306 C499.947329,165.193054 499.372656,160.80614 496.48638,158.015461 L494.541985,156.135466 C491.751421,153.437329 487.489916,152.903128 484.108138,154.82753 L27.5331283,414.641728 L31.8768269,422.123197 L38.1154603,416.096734 L34.3912935,412.318107 L28.1526602,418.34457 L35.6328084,422.774564 L266.690591,40.385294 L259.210443,35.9553007 L259.217282,44.584606 L263.955835,44.5809256 L263.948996,35.9516203 L256.459536,40.3661654 L482.906772,416.904816 L490.396232,412.490271 L483.212885,407.602485 L479.837166,412.464977 L487.020513,417.352763 L491.288928,409.828945 L33.4376618,155.245171 L29.1692468,162.768989 Z" id="Path-2288"></path>
                </g>
            </g>
        </g>
    </g>
</svg>